<svg width="52" height="52" viewBox="0 0 52 52" fill="none" xmlns="http://www.w3.org/2000/svg">
<path d="M18.4868 0.765003C11.0691 3.28853 5.33382 8.25912 2.12206 15.065C-0.707353 21.1062 -0.707353 30.4356 2.12206 36.4768C4.64559 41.8297 9.69265 46.8768 15.0456 49.4003C21.0868 52.2297 30.4162 52.2297 36.4574 49.4003C41.8103 46.8768 46.8574 41.8297 49.3809 36.4768C52.0574 30.8179 52.1338 21.1827 49.6868 15.6003C48.7691 13.6121 47.6221 12.0062 47.0868 12.0062C46.1691 12.0062 46.3221 12.6944 48.2338 17.7415C49.6103 21.2591 49.7632 28.7532 48.6927 32.8062C47.8515 35.865 43.4927 42.7474 42.1162 43.1297C41.6574 43.2827 41.0456 42.4415 40.8162 41.2944C40.2809 38.6179 35.5397 33.5709 32.175 32.1944C28.8868 30.8179 22.6162 30.8179 19.3279 32.1944C15.9632 33.5709 11.2221 38.6179 10.6868 41.2944C10.1515 44.1238 9.08088 43.665 6.09853 39.2297C2.81029 34.4121 1.81618 30.3591 2.19853 23.8591C2.73382 15.5238 7.09265 8.79441 14.3574 4.74147C18.1044 2.67677 19.0985 2.44736 25.7515 2.44736C32.3279 2.44736 33.3985 2.67677 37.0691 4.665C40.9691 6.88265 42.8809 6.95912 41.1221 4.81794C37.9868 1.07088 24.7574 -1.2997 18.4868 0.765003ZM33.0927 35.0238C36.2279 36.9356 38.5985 40.1474 39.2103 43.2062C39.6691 45.3474 39.4397 45.6532 36.3809 47.3356C33.5515 48.7885 31.8691 49.0944 25.7515 49.0944C19.6338 49.0944 17.9515 48.7885 15.275 47.3356C13.4397 46.4179 11.9868 45.0415 11.9868 44.4297C11.9868 40.5297 16.9574 34.8709 21.6985 33.4179C24.7574 32.4238 30.1103 33.1885 33.0927 35.0238Z" fill="white"/>
<path d="M43.4926 8.87088C43.7985 9.865 44.8691 10.0944 44.9455 9.17676C44.9455 8.87088 44.5632 8.48853 44.1044 8.25912C43.5691 8.10618 43.2632 8.41206 43.4926 8.87088Z" fill="white"/>
<path d="M22.3103 11.1651C18.8692 12.6945 16.9574 15.7533 16.9574 19.7298C16.9574 22.9415 17.3398 23.7827 19.4809 25.9239C21.6221 28.0651 22.4633 28.4474 25.7515 28.4474C29.0398 28.4474 29.8809 28.0651 32.0221 25.9239C34.1633 23.7827 34.5456 22.9415 34.5456 19.6533C34.5456 16.4415 34.1633 15.5239 32.175 13.4592C29.6515 10.9356 25.1398 9.94152 22.3103 11.1651ZM30.6456 14.7592C33.3986 17.5886 33.3986 21.718 30.6456 24.5474C26.2103 28.9062 18.8692 25.8474 18.8692 19.6533C18.8692 17.5886 19.4045 16.2121 20.8574 14.7592C22.3103 13.3062 23.6868 12.7709 25.7515 12.7709C27.8162 12.7709 29.1927 13.3062 30.6456 14.7592Z" fill="white"/>
</svg>
